<?xml version="1.0" encoding="UTF-8" standalone="yes"?>
<svg version="1.2" width="411.000000pt" height="411.000000pt" viewBox="0 0 411.000000 411.000000" preserveAspectRatio="xMidYMid meet" baseProfile="tiny-ps" xmlns="http://www.w3.org/2000/svg">
  <title>bimi-svg-tiny-12-ps</title>
  <g transform="translate(0.000000,411.000000) scale(0.100000,-0.100000)" fill="#000000" stroke="none">
    <path d="M2040 3912 c-104 -12 -400 -87 -365 -92 6 -1 19 -3 30 -6 11 -2 40&#xA;-6 64 -9 25 -4 48 -8 51 -10 4 -2 20 -7 37 -9 90 -16 240 -75 313 -124 197&#xA;-131 260 -369 145 -551 -23 -37 -27 -59 -10 -52 5 2 57 4 115 5 120 2 143 12&#xA;189 80 25 37 33 56 47 121 11 49 2 173 -18 235 -12 38 -54 126 -69 144 -40 48&#xA;-53 64 -68 83 -31 38 -144 117 -224 156 -79 39 -118 43 -237 29z"/>
    <path d="M2382 3872 c94 -62 150 -112 198 -177 99 -134 140 -290 116 -440 -9&#xA;-58 -61 -158 -96 -185 -36 -28 -37 -36 -7 -46 12 -3 34 -15 49 -25 33 -24 117&#xA;-25 163 -3 101 48 155 183 150 377 -4 150 -37 255 -126 398 -27 43 -35 48&#xA;-112 73 -45 14 -92 28 -105 31 -13 2 -32 7 -42 10 -32 10 -86 18 -205 31 l-60&#xA;6 77 -50z"/>
    <path d="M1538 3767 c-128 -58 -295 -174 -399 -278 -33 -32 -59 -60 -59 -62 0&#xA;-3 27 6 61 20 33 13 70 27 82 29 216 47 378 41 533 -21 162 -65 268 -159 304&#xA;-269 17 -52 15 -151 -4 -203 -17 -48 -15 -51 22 -24 15 10 47 28 72 41 94 47&#xA;177 180 182 293 11 270 -253 449 -724 491 -16 1 -47 -7 -70 -17z"/>
    <path d="M2880 3774 c0 -3 11 -25 24 -48 76 -136 114 -337 91 -481 -11 -66&#xA;-44 -156 -76 -201 -37 -55 -74 -81 -137 -97 l-50 -12 36 -44 c71 -85 77 -90&#xA;115 -96 56 -8 108 12 165 61 146 128 204 324 178 598 -8 77 -9 81 -49 119 -43&#xA;40 -164 132 -206 155 -75 43 -91 51 -91 46z"/>
    <path d="M1358 3464 c-2 -1 -20 -5 -42 -8 -21 -4 -42 -8 -46 -11 -3 -2 -20 -6&#xA;-36 -9 -33 -6 -163 -61 -209 -89 -40 -25 -94 -103 -164 -240 -53 -104 -121&#xA;-262 -121 -283 0 -4 8 3 17 16 70 100 196 194 318 237 128 45 149 48 290 48&#xA;177 0 238 -12 319 -59 83 -49 149 -146 162 -240 3 -23 8 -47 10 -54 5 -17 85&#xA;67 121 127 32 53 63 161 57 198 -2 16 -7 43 -10 62 -17 100 -188 242 -334 276&#xA;-3 1 -25 7 -50 15 -37 10 -274 23 -282 14z"/>
    <path d="M3272 3382 c10 -212 -47 -398 -159 -522 -63 -71 -123 -103 -195 -104&#xA;-43 -1 -57 -4 -53 -14 2 -7 12 -37 21 -68 19 -65 42 -90 92 -97 56 -9 100 0&#xA;182 40 101 49 223 170 267 264 34 71 53 152 48 202 -7 65 -98 248 -173 347&#xA;l-34 45 4 -93z"/>
    <path d="M1220 3079 c-19 -5 -47 -11 -62 -14 -111 -21 -253 -111 -338 -212&#xA;-54 -64 -135 -213 -145 -268 -5 -22 -9 -42 -10 -45 0 -3 -5 -30 -9 -60 -5 -30&#xA;-11 -64 -13 -75 -7 -28 -11 -411 -6 -457 3 -21 9 -38 14 -38 5 0 8 3 7 8 -1 4&#xA;4 32 12 62 8 30 14 58 15 62 0 3 3 10 8 14 4 4 7 14 7 21 0 8 16 48 35 89 104&#xA;227 292 408 497 482 98 35 232 40 314 12 64 -22 149 -82 191 -135 15 -19 30&#xA;-35 33 -35 3 0 7 13 8 29 1 16 12 60 23 98 29 91 22 195 -19 284 -41 90 -122&#xA;148 -244 173 -70 15 -263 18 -318 5z"/>
    <path d="M2355 3023 c-11 -2 -49 -11 -84 -20 l-64 -16 60 -27 c112 -51 186&#xA;-141 176 -214 -3 -22 0 -33 9 -33 7 0 21 -4 30 -8 38 -16 53 86 24 172 -25 75&#xA;-106 153 -151 146z"/>
    <path d="M2463 2996 c48 -44 81 -122 83 -200 2 -48 -2 -75 -12 -92 -18 -26&#xA;-11 -44 15 -44 40 0 80 83 85 174 5 106 -47 170 -150 182 l-49 6 28 -26z"/>
    <path d="M3499 2956 c-1 -9 -2 -20 -3 -24 0 -4 -17 -39 -36 -78 -81 -161 -289&#xA;-315 -434 -320 -40 -2 -73 3 -91 12 -15 8 -28 14 -29 14 -1 0 -3 -12 -4 -27&#xA;-1 -16 -4 -38 -6 -50 -8 -39 5 -59 61 -93 53 -33 61 -34 152 -34 195 0 353 85&#xA;414 223 21 47 27 148 14 236 -3 22 -9 64 -13 93 -6 50 -23 81 -25 48z"/>
    <path d="M2141 2948 c-20 -7 -131 -85 -131 -92 0 -2 15 0 33 3 85 18 263 -43&#xA;292 -99 8 -16 15 -36 15 -45 0 -21 26 -19 50 5 25 25 25 56 -1 99 -55 90 -186&#xA;156 -258 129z"/>
    <path d="M2651 2923 c14 -38 9 -140 -10 -188 -19 -49 -38 -76 -68 -96 -27 -19&#xA;-17 -39 24 -45 24 -4 38 3 75 35 54 48 79 97 84 162 3 52 -17 84 -82 134 l-34&#xA;26 11 -28z"/>
    <path d="M1995 2814 c-42 -14 -83 -53 -108 -100 l-16 -31 47 23 c46 22 125 38&#xA;187 38 74 -1 117 -16 155 -54 29 -29 41 -36 49 -26 18 21 4 79 -26 103 -60 49&#xA;-212 74 -288 47z"/>
    <path d="M2782 2765 c-3 -45 -50 -122 -97 -161 -37 -30 -53 -37 -86 -36 -21 1&#xA;-39 -2 -39 -7 0 -8 26 -40 33 -41 108 -23 200 23 232 116 15 43 13 63 -11 117&#xA;-20 43 -29 47 -32 12z"/>
    <path d="M1996 2699 c-21 -5 -65 -23 -96 -41 -55 -30 -58 -34 -70 -87 -7 -31&#xA;-15 -71 -17 -90 l-5 -34 50 51 c101 103 243 143 337 96 43 -23 45 -23 55 -4&#xA;21 39 0 86 -45 104 -30 12 -164 15 -209 5z"/>
    <path d="M2392 2664 c-42 -17 -46 -30 -9 -26 37 4 95 -30 114 -68 10 -21 13&#xA;-22 19 -7 15 41 -23 100 -71 109 -13 3 -37 -1 -53 -8z"/>
    <path d="M1254 2611 c-189 -65 -347 -206 -453 -403 -50 -91 -73 -158 -100&#xA;-283 -37 -170 -29 -247 49 -467 45 -125 137 -318 151 -318 6 0 8 4 4 10 -16&#xA;26 -24 234 -12 333 23 192 109 410 220 552 17 22 55 61 85 88 157 135 412 168&#xA;560 71 22 -14 22 -14 16 18 -3 18 -7 73 -9 121 -4 99 -17 129 -95 204 -68 67&#xA;-139 96 -245 99 -78 3 -101 -1 -171 -25z"/>
    <path d="M2834 2594 c-23 -48 -83 -90 -148 -104 -56 -11 -95 -3 -127 26 -15&#xA;13 -17 13 -22 0 -8 -21 26 -60 70 -81 123 -59 277 33 253 150 -1 5 -2 18 -3&#xA;27 -2 25 -4 23 -23 -18z"/>
    <path d="M2325 2605 c-34 -15 -64 -59 -69 -104 -4 -39 11 -51 20 -17 3 14 22&#xA;39 40 56 40 34 87 39 134 15 38 -20 42 1 7 34 -29 26 -90 34 -132 16z"/>
    <path d="M2019 2563 c-59 -19 -145 -86 -184 -143 -26 -37 -30 -52 -29 -104 1&#xA;-75 11 -137 25 -151 7 -7 10 -5 7 5 -4 21 20 76 56 130 74 110 188 185 271&#xA;178 45 -3 48 -1 48 37 0 32 -4 36 -38 51 -44 18 -97 17 -156 -3z"/>
    <path d="M2334 2528 c-23 -18 -51 -70 -59 -109 -2 -9 7 -34 21 -55 21 -35 23&#xA;-36 22 -14 -1 30 22 87 49 117 19 21 70 48 86 45 15 -4 6 16 -10 24 -35 15&#xA;-83 12 -109 -8z"/>
    <path d="M2496 2482 c-24 -74 75 -163 185 -164 82 0 119 25 151 104 9 22 12&#xA;23 -46 -7 -54 -27 -94 -31 -160 -14 -43 11 -95 49 -113 83 -10 19 -11 19 -17&#xA;-2z"/>
    <path d="M3478 2450 c-87 -88 -235 -140 -390 -135 -87 2 -121 13 -187 63 -27&#xA;20 -35 22 -42 11 -5 -8 -9 -17 -9 -20 0 -3 -11 -19 -25 -35 -30 -34 -30 -42&#xA;-8 -74 47 -69 105 -102 223 -127 8 -2 49 -5 90 -7 132 -8 264 35 327 108 21&#xA;24 48 89 57 138 2 13 7 35 10 51 21 94 20 94 -46 27z"/>
    <path d="M2403 2469 c-35 -22 -63 -81 -63 -134 0 -56 71 -109 162 -121 l43 -6&#xA;-48 36 c-51 40 -87 99 -87 143 0 16 9 45 20 66 23 42 18 45 -27 16z"/>
    <path d="M2440 2425 c-6 -19 -8 -49 -5 -66 9 -42 80 -111 129 -126 37 -11 44&#xA;-10 99 20 l60 31 -64 11 c-78 13 -116 33 -158 80 -27 32 -36 52 -32 78 0 4 -3&#xA;7 -8 7 -5 0 -15 -16 -21 -35z"/>
    <path d="M2090 2431 c-55 -20 -155 -118 -194 -190 -19 -36 -30 -73 -33 -115&#xA;-5 -58 -3 -64 37 -122 22 -34 52 -72 66 -85 l26 -24 -7 25 c-12 51 -11 128 3&#xA;185 30 120 137 245 221 258 11 2 23 6 27 10 7 7 -14 66 -25 68 -38 7 -85 2&#xA;-121 -10z"/>
    <path d="M2169 2312 c-30 -20 -99 -91 -99 -103 0 -4 -6 -14 -13 -21 -25 -25&#xA;-48 -124 -46 -193 2 -68 18 -145 30 -145 3 0 18 -10 32 -22 15 -13 49 -35 76&#xA;-51 l49 -27 -20 41 c-26 54 -30 71 -33 149 -7 146 48 288 124 320 37 15 37 19&#xA;11 48 -25 26 -73 28 -111 4z"/>
    <path d="M2723 2239 c-38 -27 -41 -31 -36 -66 7 -54 30 -99 77 -147 79 -83&#xA;150 -106 310 -101 164 4 185 12 249 90 28 35 60 77 69 93 l18 29 -68 -25 c-56&#xA;-21 -85 -25 -177 -25 -193 -1 -320 49 -381 149 l-19 32 -42 -29z"/>
    <path d="M2262 2215 c-67 -57 -105 -221 -78 -338 27 -111 83 -170 186 -192 3&#xA;-1 23 -7 45 -13 75 -22 80 -16 27 36 -134 130 -171 378 -71 471 l24 22 -25 19&#xA;c-34 27 -73 25 -108 -5z"/>
    <path d="M1455 2204 c-188 -43 -322 -165 -425 -388 -113 -241 -134 -526 -58&#xA;-766 12 -36 31 -78 42 -95 51 -73 172 -209 262 -294 94 -89 124 -108 91 -57&#xA;-107 163 -135 619 -51 839 7 20 14 38 13 40 -1 5 14 43 34 87 89 196 306 352&#xA;490 351 l59 0 -26 33 c-13 18 -41 64 -60 102 -38 73 -80 109 -162 137 -38 14&#xA;-168 20 -209 11z"/>
    <path d="M2593 2180 c-33 -13 -56 -56 -59 -109 -6 -98 92 -238 208 -297 62&#xA;-32 177 -53 231 -43 39 7 145 73 203 127 l31 28 -122 -3 c-127 -3 -189 8 -265&#xA;47 -81 42 -156 140 -169 220 -7 37 -22 45 -58 30z"/>
    <path d="M2424 2166 c-112 -48 -79 -320 53 -436 46 -41 128 -79 178 -83 44 -4&#xA;130 8 195 27 l45 13 -60 13 c-215 44 -396 280 -331 433 11 27 12 37 3 38 -7 0&#xA;-21 2 -32 4 -11 2 -34 -2 -51 -9z"/>
    <path d="M1733 1859 c-127 -43 -264 -165 -326 -292 -147 -300 -133 -757 30&#xA;-1002 62 -93 104 -130 250 -219 120 -73 365 -196 391 -196 3 0 -19 18 -49 40&#xA;-161 120 -294 312 -354 510 -93 311 -19 656 183 847 89 84 224 142 340 146 20&#xA;1 15 4 -45 37 -32 16 -87 52 -123 79 -36 26 -82 54 -102 60 -49 16 -132 12&#xA;-195 -10z"/>
  </g>
</svg>