<?xml version="1.0"?><svg version="1.2" baseProfile="tiny-ps" viewBox="0 0 411 411" xmlns="http://www.w3.org/2000/svg" xmlns:xlink="http://www.w3.org/1999/xlink"><title>Periwinkle Trading, LLC</title><g><g fill="#96d7d5" transform="matrix(.1 0 0 -.1 0 411)"><path d="M1990 3904c-89-13-267-57-300-75l-15-7 25-6c14-3 63-12 110-21s126-30 175-46l90-30 65-39 65-38 53-56 53-56 27-57 26-58 4-87 4-87-15-46c-9-25-30-66-46-91-36-52-38-59-13-49 9 4 65 8 124 9l106 2 35 27 35 27 28 56 28 57 4 81 4 82-12 57-11 57-36 73-36 72-81 80-81 81-102 52-101 52-59-1c-32-1-101-7-153-15zm406-43l92-60 55-62 55-61 35-66 35-67 17-65 17-65-4-96-4-96-32-66-33-66-29-21c-31-22-39-40-17-40 7 0 29-11 49-25l37-25h92l37 15c53 23 81 52 113 118l28 59 12 71 12 72-6 80c-10 134-53 259-128 376l-29 47-78 25c-91 30-248 63-347 72l-70 7 91-61zm-926-129c-103-57-167-100-240-160-70-58-150-134-150-144 0-4 20 2 45 13 24 11 79 29 122 40l78 20 86 6 86 6 83-12 84-13 78-28 78-29 69-46c82-54 125-101 157-169l24-51v-142l-15-42-14-41h7c5 0 13 5 18 10 6 6 37 25 71 43l60 32 38 45c21 25 51 72 66 105l29 60v144l-20 55-21 54-32 41c-66 82-174 147-322 194-97 30-249 57-324 57h-56l-85-48zm1410 44c0-3 15-36 34-73s45-102 58-143l23-75v-135l-1-135-22-65c-29-80-61-130-105-164l-34-26-50-12-50-12 50-63 50-62 30-11c45-15 68-12 125 16l52 26 46 51 47 52 33 69 33 69 17 74 16 75-4 144-4 145-55 55c-53 54-149 125-241 178-27 15-48 25-48 22zm-1531-315c-82-12-193-48-279-91l-75-38-51-78c-63-96-125-219-170-336-19-48-34-90-34-94 0-3 18 17 39 44 84 106 218 191 368 234l78 22 145 1h145l55-14c72-18 122-44 171-88l41-37 23-45c21-43 37-90 50-154l6-28 49 53 50 53 32 65 33 65 4 77 3 78-26 55-27 54-51 46-50 45-82 40c-44 22-108 47-141 55l-60 16-95 4-95 4-56-8zm1921-113v-127l-15-73-15-73-39-80-38-80-48-53-47-53-46-26-45-27h-59l-58-1 6-15c3-8 13-42 22-74l16-59 45-20 44-19 46 6 46 6 71 35 70 34 66 61 66 60 37 55c41 63 69 137 79 212l7 53-35 83c-37 89-83 172-140 252l-36 50v-127zm-2074-274c-91-20-172-53-240-99l-56-37-64-69-65-70-45-92c-52-105-61-139-81-315l-15-127 1-125c1-69 4-154 8-190l7-65 8 30c4 17 17 64 28 105 40 155 131 312 247 430l66 67 77 50 77 51 78 28 78 29h211l76-38 76-37 51-56 51-56 4 14c18 59 40 162 44 203l4 49-12 56c-16 72-44 126-89 173-42 45-77 65-146 84l-50 14-130 4-130 5-69-16zm1072-70c-27-8-48-16-48-19 0-2 24-15 54-28l53-25 42-38c23-20 49-51 58-67l15-30v-39l-1-39 26-10 25-9 15 12 15 12-4 77-5 76-27 47-27 46-37 25-37 25-35-1c-19 0-56-7-82-15zm204-20c20-22 44-56 53-77l16-38 6-63 6-62-18-33-17-33 11-11 10-10 25 11 25 11 14 28c8 15 20 53 26 84l12 56-10 42c-18 81-59 116-148 127l-48 7 37-39zm1015-68l-18-55-40-60-40-60-67-61-66-61-80-40-81-40-52-6-51-6-45 16-44 15-6-56-6-57 22-23c12-13 40-34 62-45l40-22 100 1 100 1 65 22c118 41 202 109 241 195l19 41-1 105v105l-13 68c-7 37-15 69-18 72-2 3-12-20-21-49zm-1397 3c-25-17-51-37-58-44l-13-12 84-5 84-6 67-31 66-32 15-29c8-16 15-36 15-45v-15h15c8 0 24 9 35 20l20 20v20c0 50-71 131-147 169l-42 21h-48l-48-1-45-30zm562 1l11-32-5-68-5-68-23-47-23-47-23-10-24-11v-35l16-6c9-3 24-6 35-6h19l44 40 44 40 22 52 22 52-5 39-5 39-29 30c-15 16-40 39-55 49l-27 20 11-31zm-639-99c-48-12-78-35-112-85-33-48-40-66-17-47 7 6 39 20 71 31l58 20h152l37-10 37-11 29-35 29-35 13 15 12 16-6 34-7 35-27 19c-15 10-47 26-71 36l-44 17-61 4-61 4-32-8zm767-58v-28l-30-51-29-52-38-31-38-31h-85v-9c0-5 12-19 26-30l27-21h34c62 0 138 44 165 95 6 11 15 35 19 54l8 35-21 48c-11 26-24 48-29 48h-9v-27zm-783-64c-44-10-129-52-145-71-12-14-42-129-42-160v-17l50 50 50 50 58 27 57 26 67 4 68 4 38-20 39-20 11 19c7 10 12 27 12 37v19l-23 21c-42 40-146 53-240 31zm378-42l-18-14 42-6 43-5 24-23c13-12 26-31 30-41l5-18 10 5c5 4 9 19 9 34v27l-28 27-28 27h-70l-19-13zm-1080-31c-119-34-218-92-321-188l-61-58-52-75c-68-97-115-200-148-322l-27-98v-120l-1-120 48-140 47-140 61-123c34-67 63-121 64-120 2 2-1 28-7 58l-10 55 5 155 4 155 27 100 27 100 43 91c58 122 110 197 189 271l65 61 56 26c30 14 85 33 123 42l68 16 83-5 84-5 60-30 60-29-6 21c-3 11-9 66-12 121l-7 100-18 30c-10 17-39 51-66 77l-48 47-60 27-60 28-80 3-80 3-50-14zm1530-45l-30-45-49-25-48-25h-98l-29 22-30 22-5-8c-8-13 17-54 47-76l28-21h156l36 28c20 15 42 37 47 48l11 20-3 52-3 53-30-45zm-488 26l-38-12-19-30-20-30 1-40v-40l19 37c11 20 32 46 46 57l27 21h68l29-15 30-16v14c0 7-10 23-22 34l-23 21-30 5-30 6-38-12zm-318-44l-46-15-49-37-48-36-35-50-36-49 1-56c0-30 4-76 8-102l7-48h10c5 0 9 7 9 15 0 9 14 43 31 77l31 62 53 52 53 51 53 27 53 26h94l5 27c7 35 2 42-39 59l-33 14-38-1c-21 0-59-7-84-16zm307-46l-32-34-10-35-11-35 12-30c7-17 18-34 24-37l11-7v56l21 35c26 41 42 56 89 77l34 15-24 14c-14 7-38 13-54 14h-29l-31-33zm1159-61l-50-53-65-31-65-30-77-16c-42-9-99-16-126-16h-48l-51 15-50 15-43 31-44 32-4-11c-2-6-17-30-34-53l-31-43 20-36 20-35 47-32c55-38 90-49 203-64l82-11 68 11 67 10 61 30c33 16 72 43 87 58l27 28 24 85c20 69 40 172 34 169-1 0-24-24-52-53zm-1085 8c-17-15-37-39-45-55l-15-28v-80l27-26c37-34 87-56 137-62l41-4-19 13c-49 34-79 64-96 99l-20 38v57l19 37 19 37h-8c-5 0-22-12-40-26zm94 11c-4-8-3-27 0-41l7-26 31-29c18-16 46-35 64-44l32-15h119l27 21c15 11 35 38 46 59l20 39-53-24-52-25h-33c-18 0-54 5-79 12l-46 11-39 39-38 38-6-15zm-48-39l-18-39 6-31 6-32 30-35 29-36 35-17c19-9 46-16 61-16h27l51 28 50 27-56 7-56 7-38 20c-21 10-51 33-67 50l-29 30-7 38-7 38-17-39zm-364-10l-53-25-52-53-53-53-28-56-27-57-6-54-6-55 27-46c15-25 44-65 65-88l38-43-7 54-7 55 8 58 8 58 29 62 29 62 47 47 47 48 50 17 49 18-6 20c-9 31-27 45-65 51l-34 5-53-25zm71-126l-40-30-37-53-37-53-14-49-15-48v-61c0-71 15-133 38-159 20-22 131-91 138-85 2 3-2 18-11 34-8 16-20 53-26 84l-11 55 6 66 6 65 19 58c25 71 54 112 94 132 18 9 33 18 35 19 2 2-4 15-13 29l-17 26h-74l-41-30zm570-61l-33-21v-83l30-51c35-62 77-99 148-132l54-24 83-6 83-5 82 13 82 13 29 25c24 20 99 116 122 158l6 10-72-25-72-24h-100l-100-1-60 13c-100 22-177 69-220 134-21 32-21 32-62 6zm-461-24l-29-25-21-48c-12-27-26-79-32-116l-11-67 11-62c14-72 38-122 77-159l28-26 83-26c46-14 92-26 103-26h20l-51 50-51 49-29 63-29 63-11 66-10 67 6 33c11 71 15 80 46 115l32 36-25 19-24 19h-53l-30-25zm-847-23c-89-27-142-58-208-121-73-69-127-147-179-258l-39-84-27-97-26-97v-370l28-90 27-90 57-75c58-78 319-347 327-338 3 2-5 24-16 48-33 68-57 145-76 239l-16 86v290l22 105 22 105 30 74c16 41 50 105 75 143l46 69 67 53c83 67 141 100 210 120l55 16h117l-24 33c-14 17-38 59-55 92-36 72-71 107-137 136l-50 23-85 3-85 3-60-18zm1175-15l-25-12-17-35-18-35v-70l30-63 29-62 49-49 49-49 44-23c24-12 67-28 94-35l50-14h123l74 50c40 27 88 63 107 79l33 29-113-5-114-6-62 16c-84 22-137 50-187 100-47 48-76 102-83 158l-6 39h-16c-9 0-27-6-41-13zm-168-10c-32-18-54-54-63-102l-8-42 9-63 9-63 31-63 30-62 41-37 42-37 54-25 55-26 65 2c36 1 97 9 136 17l71 17-75 21-75 22-50 29c-27 16-69 50-94 75l-45 46-29 58-30 58-4 52-4 52 15 37 16 37h-17c-9 0-26 2-37 5l-20 5-23-13zm-692-309c-77-30-154-81-221-147l-57-57-45-95-46-94-21-87c-11-47-25-132-30-189l-10-103 10-107c6-58 19-142 30-185l20-79 45-91 44-91 64-59 63-59 109-67c100-60 369-198 388-198 4 0-27 28-70 62l-77 63-56 66c-134 161-208 337-230 547l-10 94 10 86c18 164 61 279 145 397l45 63 52 42c83 67 193 111 308 123l25 2-60 33c-33 18-89 54-125 81-36 26-80 53-99 59l-34 12-56-1h-56l-55-21z"/></g><g fill="#75cbce" transform="matrix(.1 0 0 -.1 0 411)"><path d="M2071 3909c-96-11-239-39-326-66l-60-19 95-18c187-34 311-82 418-160 70-52 113-104 150-183l27-58v-95l-1-95-21-42c-11-23-30-57-42-76l-21-34 98 4c53 2 111 6 127 8l30 5 28 25c15 14 36 44 47 65l20 40 12 72 11 73-16 80-17 80-34 70-35 70-46 52-46 52-82 55c-80 53-194 107-219 105-7-1-51-6-97-10zm307-29l54-31 76-74 77-73 34-56c18-31 44-86 57-122l24-66 6-72 6-71-12-60-12-60-26-48c-14-27-41-61-59-77l-32-29 64-33 64-32 57 12 56 11 32 24 31 24 22 44c12 24 29 71 38 104l15 59v200l-16 65c-9 36-35 107-59 158l-43 92-25 25-24 24-79 25c-103 33-213 55-305 63l-74 6 53-32zm-901-148c-119-64-250-159-325-235l-63-63 103 34 103 35 126 5 126 5 69-12c131-23 264-90 357-180l49-46 25-50 26-50 4-60 4-60-14-52-14-52 66 35 66 36 41 45 42 45 28 56 28 57v172l-32 66-32 65-54 49-53 49-74 36c-41 20-106 45-145 57-78 23-289 61-337 61h-32l-88-48zm1413 34c0-4 16-38 36-77 19-39 45-106 56-148l21-76v-230l-27-82-27-82-50-55-51-56-41-11c-23-6-48-13-55-15l-13-4 47-57c54-66 63-71 122-72l44-1 36 17 37 17 50 51 50 51 32 65c17 36 39 92 47 125l16 59 6 95 6 95-10 80-11 80-55 52c-73 68-266 198-266 179zm-1624-327l-79-19-93-44-92-44-36-48c-44-61-144-254-185-357-17-43-31-79-31-80s38 35 84 79l84 82 83 41 84 41 80 21 80 21h250l68-16c88-21 133-44 187-98l43-43 28-58 27-59 7-49 7-49 58 70 59 70 22 58 23 57v75l1 75-30 54-30 55-55 42c-71 57-160 100-256 124l-77 20-116-1h-116l-79-20zm2008-111v-133l-17-65c-10-36-33-98-52-138l-35-73-61-64-62-65-42-20-41-20h-96l7-22c3-13 11-41 17-63s19-49 29-60l19-19 67-4 68-4 85 43 84 42 71 71 70 71 32 65c36 73 52 135 53 195v40l-35 83c-32 78-102 201-143 251l-17 22-1-133zm-1994-245c-67-7-170-33-225-57-150-67-250-166-335-336l-32-64-19-90c-10-49-23-152-30-229l-11-141 7-124 7-124 8 9c4 4 15 38 23 74 39 157 126 314 243 438l67 72 82 54 82 55 66 25c37 14 98 30 136 36l69 10 64-11 63-12 57-30 57-30 54-57 54-56 26 110 26 110-9 60c-4 33-16 82-26 109l-17 49-46 47-46 47-55 21-55 20-90 11c-88 11-125 12-195 4zm1011-79c-30-8-57-16-59-18-2-3 17-13 42-24l45-21 52-47c28-27 58-61 66-78l15-29-4-33-4-33 29-7c36-8 38-5 44 49l5 44-16 56-17 57-31 35c-32 37-77 66-100 64-7 0-38-7-67-15zm192-24l36-42 15-46 16-46v-122l-14-20-15-20 8-13 8-12 26 12 26 12 17 41c9 22 19 67 21 98l6 58-18 46-18 46-41 18c-22 10-56 21-75 25l-35 7 37-42zm1008-65c-7-25-30-71-51-103l-37-57-75-71-76-72-77-38-77-38-64-4-63-4-29 10-30 10-9-49-10-49 23-26c13-14 43-34 66-44l43-20h161l59 15c74 19 149 55 195 94l36 29 28 53 29 53 5 71 4 71-11 87c-7 48-15 96-19 107l-8 20-13-45zm-1401-1c-30-20-58-39-62-43-4-3 25-6 65-7l72-1 58-22c31-13 70-34 86-47l30-25 11-34 11-34 17 6c23 9 32 23 32 56 0 56-49 117-129 158l-43 22-47 4-46 4-55-37zm567-1c4-15 8-50 7-78l-1-50-17-52-18-53-35-29-35-29 6-11 7-11h64l37 30 36 30 21 43 21 43v95l-16 24c-8 13-31 36-50 50l-35 27 8-29zm-677-107l-35-13-32-44c-17-24-31-45-29-46 1-1 25 6 53 17l51 19 64 7 64 6 56-11 57-12 35-39c19-21 37-36 40-32 3 3 6 22 6 43v38l-17 16c-9 10-37 26-62 38l-46 20-85 3-85 4-35-14zm804-51c-16-70-78-150-138-182l-29-15-28 6-29 6v-10c0-5 12-17 27-27l27-18 43 2 43 1 42 24 43 23 23 45 22 44v31l-1 30-19 35-18 35-8-30zm-806-65c-14-4-49-20-77-36l-51-27-10-38c-6-20-14-58-19-83l-9-47 54 51 54 51 57 27 58 26 70 1h70l25-17c31-23 37-22 50 2l11 21-6 20-7 20-31 20-32 19-90-1c-49 0-102-4-117-9zm402-35l-25-14 35-1h35l32-19 31-20 7-22 7-22 9 16 9 15-9 25c-5 14-20 32-33 41l-22 16h-26c-14-1-36-7-50-15zm-1049-26c-163-27-360-163-468-324-110-164-183-384-183-554v-58l30-105c37-132 75-230 140-355l50-98-7 60c-4 33-7 112-6 175l1 115 20 95c11 52 35 137 54 187l35 93 49 81 49 82 65 66 66 66 59 32c69 36 159 62 240 67l55 4 54-12c30-7 72-22 94-33l40-20-5 111-5 111-23 41c-30 52-98 114-156 142l-47 23-58 9c-66 11-69 11-143-1zm987-35l-28-15-15-29c-8-16-15-42-15-57v-28l19 30c10 17 29 40 43 52l24 23 29 5 30 6 36-19 36-18-5 18c-2 10-14 25-25 33l-21 15h-41l-40-1-27-15zm503-24c-12-17-39-42-60-56l-39-25-56-6-57-6-30 22c-36 26-47 21-31-13l11-25 33-18 33-17 65-1h65l38 23 37 24 15 28 15 29v71h-8c-5 0-18-14-31-30zm-814-15c-21-8-58-29-82-46l-45-32-35-51-35-51 1-70c1-39 4-83 8-100l6-30 31 65 31 65 50 55 51 55 56 34 56 33 55 2 55 1v62l-25 11-26 12-57-1h-57l-38-14zm319-40c-12-13-29-42-36-65l-13-41 15-32 16-32 11 40c14 54 36 82 87 115l44 28-16 6c-8 3-31 6-50 6h-35l-23-25zm174-61v-37l38-36 38-37 41-12c43-13 93-14 133-3l25 7 27 39c15 22 27 43 28 47 0 4-19-2-42-12l-43-20h-110l-40 19-41 18-27 32-27 33v-38zm973-14l-53-48-54-26c-30-14-85-33-123-42l-68-16-90 4-90 4-35 18c-19 10-47 29-62 43l-26 25-12-23c-7-13-24-36-37-50l-25-27 15-28c33-64 97-105 199-129l63-15h171l55 16 54 15 52 35 51 35 17 35c20 42 58 189 53 208l-3 14-52-48zm-1088 5l-33-34-7-39-6-38 10-27 10-26 40-26 40-27 42-5 42-6-43 39-43 39-18 41-19 41 9 30c5 17 14 40 20 52l12 21h-12c-6 0-26-16-44-35zm62-10c-4-9-7-34-7-54v-38l22-29c34-44 59-63 101-76l38-12 57 29 57 29-55 6-55 7-30 16c-50 26-84 60-103 101l-19 38-6-17zm-376-18l-45-22-47-47-47-47-31-63-30-63-7-50-6-50 52-77c28-43 54-79 58-82l7-4 1 91v92l23 58 22 57 40 50c44 56 103 99 148 109l29 6-13 33-14 32h-96l-44-23zm104-105c-16-11-47-38-69-62l-38-43-24-52-24-52-6-59-6-59 12-59 12-59 29-26c15-14 51-39 78-54l50-28-22 48-22 48v210l19 59 20 60 41 43 42 43h16c23 0 21 13-6 38l-23 22h-25c-13 0-37-8-54-18zm547-75l-33-22 4-40c9-86 67-164 155-209l48-24 62-12 63-13 73 6c39 4 96 12 125 19l52 12 38 45c43 52 92 123 88 128-2 1-28-7-58-19l-54-22h-115l-115-1-63 14-63 14-52 31-51 31-31 42c-16 23-32 42-35 42s-20-10-38-22zm-448-17l-31-20-28-62-28-62-5-85-4-86 11-42c6-22 26-63 44-90l32-48 77-27c42-15 94-30 114-34l36-7-51 48-51 48-31 63-31 63-11 73-10 73 7 48 7 47 33 44 34 43-28 17c-36 21-48 20-86-4zm-833-25c-36-8-89-26-118-40l-53-26-55-51-55-50-55-82c-66-99-109-198-142-325l-25-96-5-121-6-122 12-82c7-46 21-111 32-146l19-63 58-78c65-88 209-242 284-305l50-42-19 40c-30 58-59 150-79 244l-18 85v145l-1 145 14 75c52 293 179 480 394 580l63 30 58 11 59 11 23-6c30-8 30-3 0 37-13 18-38 60-55 94l-30 61-30 21c-17 12-50 30-74 41l-44 20-69 5-69 5-64-15zm1153-19l-31-14-12-30-13-30v-93l26-53 26-52 47-48 46-47 56-28c62-32 140-51 204-51h42l62 37c34 20 84 56 110 80l48 43-40-7c-22-4-76-7-121-6h-80l-60 18-59 17-47 30c-81 51-137 130-152 211-8 41-9 42-52 23zm-183-22l-23-17-14-33-14-33v-119l18-60 19-59 32-46 32-46 45-31c24-18 65-38 91-47l45-16 77 6c42 3 94 11 116 18l40 12-72 22-72 22-51 33c-28 18-69 53-92 79l-41 46-30 63-29 63 4 62c3 34 8 70 13 80l7 17h-78l-23-16zm-667-294l-60-20-61-39c-33-21-85-64-116-95l-55-56-41-83-40-82-28-100-28-100 1-205V875l22-80 22-80 40-81 40-82 47-53 48-53 105-68 105-69 153-76c84-42 155-73 158-71 3 3-17 22-44 42-68 50-166 156-219 239-61 94-101 184-130 297l-25 95-1 135v135l17 70c21 89 51 164 95 240l34 60 66 65 66 65 65 31 65 32 60 12c33 7 66 14 74 16l14 5-73 45c-40 24-91 59-112 76-22 17-56 37-76 44l-37 13h-90l-61-19z"/></g><g fill="#58c1b0" transform="matrix(.1 0 0 -.1 0 411)"><path d="M2020 3903c-56-6-257-53-291-67l-31-13 91-17c122-22 241-60 325-104l70-36 58-54 58-54 35-72 36-71 6-71 6-71-13-51-12-51-32-53-32-53 111 3 110 4 27 14c35 18 74 69 94 125l16 44v90l-1 90-20 66-21 65-38 60-38 59-72 66-71 66-91 46-91 47-77-2c-42 0-93-3-112-5zm377-32c34-23 84-62 112-87l50-45 49-73 48-72 25-75 24-74v-200l-19-54-19-55-44-47-44-47 45-26 45-26h113l38 21 37 21 27 41c15 23 34 65 42 92l16 50 5 111 5 110-21 85-21 84-41 82c-23 46-51 93-63 106l-22 23-84 27c-103 32-201 53-295 62l-70 7 62-41zm-912-139c-121-63-226-137-316-223l-74-70 20 7c11 3 53 17 93 30l72 24 94 11 95 11 86-11c48-7 122-23 164-36l76-24 64-38 64-38 58-58 58-57 21-58 22-57-5-75c-3-41-8-83-12-93l-7-18 71 38 72 37 39 51c22 28 49 73 61 101l22 49v150l-23 59-22 58-59 59-58 58-93 45-93 45-83 21c-75 19-264 50-302 50-8-1-56-22-105-48zm1418 16c3-7 22-52 42-101l36-87 16-83 15-82-5-85-6-85-20-67-21-66-33-48c-39-58-69-81-135-102l-51-17 58-63 58-62h87l42 20 42 21 51 54 52 55 29 62c38 82 58 159 65 261l7 82-11 90-10 90-48 43c-58 53-174 137-227 164l-39 20 6-14zm-1603-303c-86-19-172-50-243-88l-57-30-44-66c-61-93-118-201-160-303-20-48-36-89-36-92s28 23 63 57l62 63 61 37c84 50 177 84 287 103l92 16 90-5c116-8 187-23 253-55l54-26 43-49 44-48 21-57c12-31 25-74 28-95l7-37 56 65 57 66 21 55c11 30 23 76 27 103l6 48-16 56-16 56-49 53-49 53-63 38-64 38-80 25-80 26-125 4-125 4-65-15zm1977-137l-5-133-17-60c-9-33-32-91-50-130l-34-70-49-55-50-56-52-28-51-28-50-2-49-1 7-20c4-11 12-40 18-65l12-45 34-17 34-18h85l48 18c69 26 148 81 215 149l58 58 34 67 34 68 11 57 12 57-5 37-5 37-45 95c-38 81-120 217-131 217-2 0-6-60-9-132zm-2096-244l-65-13-70-34c-39-19-98-55-131-80l-60-46-41-53c-55-71-98-150-122-223l-20-60-16-123-16-124v-347l8-5 8-5 17 68 18 69 54 108 54 109 55 70c132 165 308 277 484 307l72 12 66-11 66-12 56-27 57-28 56-56 56-55 19 70 19 70v192l-35 68-35 69-46 33-47 33-77 20-78 20-121-1-121-1-64-14zm1110-61l-64-15 45-22c64-31 114-71 149-120l31-41-4-42-3-42 25-5 25-4 10 9 10 10-2 63-1 63-26 51-26 52-42 30c-46 34-41 33-127 13zm186-15c18-18 42-55 54-83l23-50v-66l1-67-19-21-19-21 18-6 18-7 16 10c9 5 25 27 35 49l20 39v75l1 75-20 32-19 33-41 14c-22 8-53 18-70 21l-30 6 32-33zm-382-75l-60-38 73-7 74-8 58-26 58-26 25-26c14-15 28-37 32-49l6-23h13c6 0 17 5 24 12l12 12v60l-26 37c-42 62-139 117-204 119h-26l-59-37zm1406 26c-1-9-17-47-36-86l-34-69-56-61-56-62-75-50-75-50-67-21-67-21-45 6c-25 4-52 11-62 16l-16 9-7-52-7-52 36-32 35-31 39-11 39-12h128l63 15c78 19 151 55 203 102l41 37 24 49 25 49 6 47 5 48-11 103c-7 56-16 112-21 123l-9 22v-16zm-836-87v-77l-18-47-18-47-35-31-35-30 6-10 6-10h59l42 38 41 37 18 40 19 40v91l-43 42-43 42 1-78zm-678-46c-21-8-40-16-41-18-1-1-15-19-29-39-15-20-27-39-27-42s21 3 47 15l46 20 81 5 81 5 44-12 45-12 34-34c19-19 36-34 38-34s4 15 4 33v33l-15 20-14 21-53 23-53 23-75 4-75 3-38-14zm798-65c-3-16-20-51-37-76l-31-47-40-29-40-29h-67v-10c0-28 92-40 147-19 15 5 42 24 59 41l32 30 12 43 12 43-12 36c-6 20-15 38-20 41l-8 5-7-29zm-820-59c-28-10-65-28-82-40l-32-23-11-37c-5-20-13-54-17-76l-6-38 47 44 46 45 57 28 57 28 61 4 60 5 40-18c22-10 42-19 45-21s11 6 18 17l12 20-15 29-14 29-32 11-32 11h-76l-76-1-50-17zm431-21l-18-7 40-12 41-12 25-31 26-31v53l-25 24-24 25-23-1c-13 0-31-4-42-8zm-1126-50c-254-82-459-309-544-604l-24-83-12-97-11-98 6-32c17-80 68-242 106-332 41-99 96-215 103-215 1 0-1 26-6 58l-10 57 5 130 6 130 25 100c29 116 70 218 129 318l42 70 75 77 75 77 68 32 67 32 73 15 72 16 70-6 69-7 54-24c30-14 55-25 56-25s0 48-2 108l-4 107-35 52-35 53-40 31c-22 18-65 42-96 55l-57 24-85-1h-85l-55-18zm1057-13l-28-10-19-39c-11-21-20-46-20-56v-18l25 38 26 37 29 15c36 19 67 19 103 1 27-15 33-11 19 10-21 32-81 42-135 22zm496-33l-22-33-56-27-55-27-55 4-55 5-20 18-20 18v-31l30-26c29-24 86-46 120-46 8 0 32 5 53 11l38 10 33 30 34 29 6 35 7 35-8 14-8 15-22-34zm-829-19c-63-29-119-78-156-135l-28-45v-45c0-56 10-121 19-121 3 0 15 21 25 47l19 46 65 68 64 69 64 31 63 31 40-4 41-4v55l-22 15-22 16h-121l-51-24zm333-36c-14-16-30-45-37-64l-11-35 14-27 15-28 7 33 7 33 34 38 34 38 31 12 30 13-13 8c-7 5-29 9-50 9h-36l-25-30zm173-50v-36l15-22c9-12 37-34 62-49l46-27 71 1 70 1 18 24c10 12 25 35 33 49l14 26-42-21-42-21h-55l-55 1-48 23-49 24-19 31-19 31v-35zm984-15l-42-41-58-31c-33-17-88-39-124-48l-65-17-80-1-80-1-40 13c-22 8-58 26-81 42l-41 28-36-49-36-48 28-40c36-48 78-75 156-98l60-18h230l56 22 56 22 41 35 40 35 21 63c20 62 44 168 39 172-2 0-22-17-44-40zm-1078 19c-11-7-28-26-38-41l-18-28v-102l38-26c39-27 84-47 107-47h14l-44 46-45 45-11 40-12 39 16 42c9 23 16 43 14 44-1 1-11-4-21-12zm-342-53l-51-30-45-50c-54-60-87-125-98-195l-8-51 26-48c14-26 39-64 56-83l31-36 1 99 1 98 25 56 26 57 38 42c22 24 57 56 78 72l39 28h57l-13 28c-16 36-25 42-72 42h-40l-51-29zm383 15c-26-68 30-157 117-186l35-11 48 21 48 22-25 8c-14 4-43 13-65 19l-40 10-38 32-37 31-19 35-18 36-6-17zm-268-116c-73-38-139-140-158-242l-10-56 5-39c3-21 10-56 15-79l11-41 63-41c35-23 65-42 68-42s-3 21-13 48c-10 26-21 70-24 97l-7 50 11 70 11 70 24 53 24 52 33 30c18 17 38 30 45 30 19 0 16 17-7 40l-20 20h-17c-10-1-34-9-54-20zm538-83l-28-22 7-44 7-43 31-46 31-46 43-33 43-33 57-16 57-17h161l68 13 67 13 30 31c16 17 47 56 68 87l39 55-66-23-67-22-100-1h-100l-69 15-68 14-43 26c-24 13-61 45-83 70s-43 45-48 45-22-10-37-23zm-428-5l-34-17-22-33-22-33-17-76-17-76 6-64 6-64 19-42 19-42 36-32 37-32 67-19c38-11 79-22 91-25l24-6-45 45c-56 55-90 112-112 188l-17 58 4 83 3 83 34 42 34 42-14 9c-8 6-21 14-30 19l-16 9-34-17zm-896-43l-62-19-63-43-63-42-48-60c-93-116-161-262-199-429l-21-91v-140l-1-140 13-60c7-33 22-87 33-120l20-59 66-86c62-80 290-315 298-307 2 2-8 28-22 58-15 29-38 97-52 149l-26 95v410l28 100 27 100 41 85 41 85 81 81 81 81 65 36c78 42 158 67 218 67h44l-22 33c-12 17-34 59-50 93l-29 60-41 28c-23 15-60 34-82 42l-41 14-86-1h-86l-62-20zm1207-7l-35-17-12-25-13-25v-92l30-60 30-61 50-46 51-47 55-25 55-24 70-10 70-10 27 6c30 7 137 75 192 122l35 30-45-9c-106-20-225-6-319 37l-56 25-43 42c-56 55-83 99-96 158l-11 49-35-18zm-200-32l-29-31-7-45-6-45 6-50c4-28 16-76 28-107l21-57 56-56 56-56 60-22 60-23 65 6c36 3 88 12 115 19l50 13-41 7-41 7-70 35-70 35-57 60-57 59-25 56c-15 31-28 73-31 93l-5 37 15 42c8 23 12 45 9 48s-21 5-40 5h-34l-28-30zm-604-271l-50-8-72-35-71-36-72-66-72-67-44-91c-54-111-80-205-96-339l-12-102 6-107c13-228 78-414 186-532 55-60 386-257 517-306l28-11-86 81c-48 44-108 109-134 143l-47 62-48 100-49 100-22 80-22 80v160l-1 160 23 79 23 80 41 80 42 81 75 76 76 76 75 36 75 35 63 13 63 12-52 28c-29 16-75 46-103 67-93 71-144 86-240 71z"/></g><g fill="#50bcbb" transform="matrix(.1 0 0 -.1 0 411)"><path d="M1064 3359c-33-16-67-40-77-52-56-70-192-329-222-425l-7-23 65 64 64 64 69 41 69 41 78 26 78 26 84 11 85 11-53 57c-29 31-75 87-102 124l-49 66h-12c-7 0-38-14-70-31zm117-295l-65-13-70-34c-39-19-98-55-131-80l-60-46-41-53c-55-71-98-150-122-223l-20-60-16-123-16-124v-347l8-5 8-5 17 68 18 69 54 108 54 109 55 70c132 165 308 277 484 307l72 12 66-11 66-12 56-27 57-28 56-56 56-55 18 70c21 82 30 173 20 221l-6 34-60 31c-82 41-181 105-258 167l-64 52-86-1-86-1-64-14zm2204-97c-134-92-344-196-450-221l-50-12 3-25c1-13 7-40 12-60l10-37 34-16 34-16h82l48 18c105 40 216 132 283 235 39 59 73 146 67 170l-3 13-70-49zm106-64c-36-102-144-227-262-303l-63-40-65-21-66-20-45 6c-25 4-52 11-62 16l-16 9-7-52-7-52 36-32 35-31 39-11 39-12h128l63 15c78 19 151 55 203 102l41 37 24 49 25 49 6 47 5 48-12 104c-6 57-15 110-19 117l-7 12-13-37zm-1631-119v-15l10 6c6 3 10 10 10 16 0 5-4 9-10 9-5 0-10-7-10-16zm51-43c-29-41-27-43 22-21 23 11 53 20 67 21l25 1-35 13c-50 19-56 18-79-14zm878-28c-9-2-21-14-27-27-16-35-71-95-103-112-15-7-42-14-59-14h-30v-10c0-16 37-30 80-30h41l32 14 33 13 27 32c14 18 32 49 38 71l12 38-6 16c-6 16-10 17-38 9zm-818-29c-25-9-61-27-82-40l-38-24-11-37c-5-21-13-55-17-77l-6-38 47 44 46 45 57 28 57 28 61 5 62 4 45-19 45-20 12 20 13 20-20 26c-10 14-30 32-43 38l-24 13-80-1h-80l-44-15zm692 9l-31-4-16-24c-8-13-25-26-36-30l-21-7 12-14 11-14h47l36 31c20 18 40 40 46 50l10 19-13-2c-7 0-27-3-45-5zm-377-18l6-15 9 6c14 8 10 24-6 24h-14l5-15zm252-2c6-2 18-2 25 0l12 5h-50l13-5zm-137-12l-13-9 35-11 36-12 26-30 25-31v24c-1 51-68 95-109 69zm-1131-50c-254-82-459-309-544-604l-24-83-12-97-11-98 6-32c17-80 68-242 106-332 41-99 96-215 103-215 1 0-1 26-6 58l-10 57 5 130 6 130 25 100c29 116 70 218 129 318l42 70 75 77 75 77 68 32 67 32 73 15 72 16 70-6 69-7 54-24c30-14 55-25 56-25s0 48-2 108l-4 107-35 52-35 53-40 31c-22 18-65 42-96 55l-57 24-85-1h-85l-55-18zm1059-12l-26-10-21-38c-12-21-22-47-22-56v-18l30 42 31 42 27 10 27 11 30-5c17-3 39-8 50-12l20-7-28 26-28 26-32-1c-18 0-44-5-58-10zm494-34l-22-33-56-27-55-27-55 4-55 5-20 18-20 18v-31l30-26c29-24 86-46 120-46 8 0 32 5 53 11l38 10 33 30 34 29 6 35 7 35-8 14-8 15-22-34zm-829-19c-63-29-119-78-156-135l-28-45v-45c0-56 10-121 19-121 3 0 15 21 25 47l19 46 65 68 64 69 64 31 63 31 40-4 41-4v55l-22 15-22 16h-121l-51-24zm333-36c-14-16-30-45-37-64l-11-35 14-27 15-28 7 33 7 33 34 38 34 38 31 12 30 13-13 8c-7 5-29 9-50 9h-36l-25-30zm173-50v-36l15-22c9-12 37-34 62-49l46-27 71 1 70 1 18 24c10 12 25 35 33 49l14 26-42-21-42-21h-55l-55 1-48 23-49 24-19 31-19 31v-35zm984-15l-42-41-58-31c-33-17-88-39-124-48l-65-17-80-1-80-1-40 13c-22 8-58 26-81 42l-41 28-36-49-36-48 28-40c36-48 78-75 156-98l60-18h230l56 22 56 22 41 35 40 35 21 63c20 62 44 168 39 172-2 0-22-17-44-40zm-1078 19c-11-7-28-26-38-41l-18-28v-102l38-26c39-27 84-47 107-47h14l-44 46-45 45-11 40-12 39 16 42c9 23 16 43 14 44-1 1-11-4-21-12zm-342-53l-51-30-45-50c-54-60-87-125-98-195l-8-51 26-48c14-26 39-64 56-83l31-36 1 99 1 98 25 56 26 57 38 42c22 24 57 56 78 72l39 28h57l-13 28c-16 36-25 42-72 42h-40l-51-29zm383 15c-26-68 30-157 117-186l35-11 48 21 48 22-25 8c-14 4-43 13-65 19l-40 10-38 32-37 31-19 35-18 36-6-17zm-268-116c-73-38-139-140-158-242l-10-56 5-39c3-21 10-56 15-79l11-41 63-41c35-23 65-42 68-42s-3 21-13 48c-10 26-21 70-24 97l-7 50 11 70 11 70 24 53 24 52 33 30c18 17 38 30 45 30 19 0 16 17-7 40l-20 20h-17c-10-1-34-9-54-20zm538-83l-28-22 7-44 7-43 31-46 31-46 43-33 43-33 57-16 57-17h161l68 13 67 13 30 31c16 17 47 56 68 87l39 55-66-23-67-22-100-1h-100l-69 15-68 14-43 26c-24 13-61 45-83 70s-43 45-48 45-22-10-37-23zm-428-5l-34-17-22-33-22-33-17-76-17-76 6-64 6-64 19-42 19-42 36-32 37-32 67-19c38-11 79-22 91-25l24-6-45 45c-56 55-90 112-112 188l-17 58 4 83 3 83 34 42 34 42-14 9c-8 6-21 14-30 19l-16 9-34-17zm-896-43l-62-19-63-43-63-42-48-60c-93-116-161-262-199-429l-21-91v-140l-1-140 13-60c7-33 22-87 33-120l20-59 66-86c62-80 290-315 298-307 2 2-8 28-22 58-15 29-38 97-52 149l-26 95v410l28 100 27 100 41 85 41 85 81 81 81 81 65 36c78 42 158 67 218 67h44l-22 33c-12 17-34 59-50 93l-29 60-41 28c-23 15-60 34-82 42l-41 14-86-1h-86l-62-20zm1207-7l-35-17-12-25-13-25v-92l30-60 30-61 50-46 51-47 55-25 55-24 70-10 70-10 27 6c30 7 137 75 192 122l35 30-45-9c-106-20-225-6-319 37l-56 25-43 42c-56 55-83 99-96 158l-11 49-35-18zm-200-32l-29-31-7-45-6-45 6-50c4-28 16-76 28-107l21-57 56-56 56-56 60-22 60-23 65 6c36 3 88 12 115 19l50 13-41 7-41 7-70 35-70 35-57 60-57 59-25 56c-15 31-28 73-31 93l-5 37 15 42c8 23 12 45 9 48s-21 5-40 5h-34l-28-30zm-604-271l-50-8-72-35-71-36-72-66-72-67-44-91c-54-111-80-205-96-339l-12-102 6-107c13-228 78-414 186-532 55-60 386-257 517-306l28-11-86 81c-48 44-108 109-134 143l-47 62-48 100-49 100-22 80-22 80v160l-1 160 23 79 23 80 41 80 42 81 75 76 76 76 75 36 75 35 63 13 63 12-52 28c-29 16-75 46-103 67-93 71-144 86-240 71z"/></g><g fill="#43b7c7" transform="matrix(.1 0 0 -.1 0 411)"><path d="M713 2663l-31-68-17-95-17-95-5-212-5-212 7-18 7-18 20 70c10 39 41 115 67 170l48 100 60 80c32 44 75 94 95 110l35 30-115 113c-64 61-116 112-117 112s-16-30-32-67zm234-262l-65-69-50-82-51-83-30-82c-16-45-37-118-46-161l-17-79-1-85-1-85 32-106c41-138 159-419 176-419 1 0-1 26-6 58l-10 57 5 130 6 130 25 100c29 116 70 217 129 318l42 71 75 78 76 77 64 30c36 17 72 31 80 31h15l-64 36c-70 39-190 117-260 171-24 18-47 33-51 33s-37-31-73-69zm427-230c-197-71-356-298-420-601l-18-85v-270l13-60c7-33 22-87 33-120l20-59 66-86c62-80 290-315 298-307 2 2-8 28-22 58-15 29-38 97-52 149l-26 95v410l28 100 27 100 40 83 40 82 66 70 65 70 59 39c33 22 85 49 117 61l57 22 61 6 62 7-37 61-36 61-80 27c-44 15-122 45-172 67-105 44-118 46-189 20zm1981-61l-40-19-55-6c-30-4-102-20-160-35-58-16-145-37-195-46l-90-18 53-24 54-24 65-8c66-8 81-8 205 12l68 10 37 43c36 40 108 136 101 134-2 0-21-9-43-19zm-1465-77c0-7 71-103 76-103 2 0 4 20 4 44v44l-40 10c-22 5-40 8-40 5zm126-55c3-18 10-53 15-78l10-46 47-31c26-16 57-35 68-41l22-12-18 48c-10 27-22 76-26 110l-6 61-42 6c-22 4-49 9-58 11l-18 5 6-33zm164-28c0-19 7-60 16-91l16-58 34-40 34-39 63-21c34-11 80-24 102-30l40-11-37 33c-21 17-53 55-72 84l-34 52-18 71-18 70h-17c-9 0-37 3-63 6l-46 7v-33zm465 21l-70-6v-12c0-6 14-32 32-57l32-45 48-35 48-35 62-22 63-21 67-1 68-2 70 47c39 27 82 58 97 71l27 22h-254l-57 22c-31 11-77 35-101 52-25 17-49 30-54 29-4-1-39-4-78-7zm-275-30c0-11 10-45 22-78l22-58 56-56 55-56 60-22 60-23 65 6c36 3 88 12 115 19l50 14-45 7-46 7-62 32-62 32-59 58-58 57-18 40-18 40h-137v-19zm-574-72l-50-8-72-35-71-36-72-66-72-67-44-91c-54-111-80-205-96-339l-12-102 6-107c13-228 78-414 186-532 55-60 386-257 517-306l28-11-86 81c-48 44-108 109-134 143l-47 62-48 100-49 100-22 80-22 80v160l-1 160 23 79 23 80 41 80 42 81 75 76 76 76 71 35 71 35 67 13 67 13-63 34c-35 20-82 51-105 69-72 59-138 77-227 63z"/></g><g fill="#29aedb" transform="matrix(.1 0 0 -.1 0 411)"><path d="M696 1863c-2-10-7-45-11-78l-6-61 20-81c38-147 132-394 174-453l12-17v176l1 176 24 95c14 52 25 98 25 101 0 5-222 159-230 159-2 0-6-8-9-17zm284-197c-15-42-38-168-45-251l-7-80 12-100 12-100 24-78 25-77 51-68c75-98 162-194 244-267l72-65-29 69c-16 38-39 109-51 157l-23 89 1 200v200l27 95c14 52 29 105 32 116l7 22-74 33c-40 18-114 55-165 81-50 27-94 48-97 48-4 0-11-11-16-24zm382-234c-46-144-62-335-42-502 14-114 35-189 80-285l37-80 41-52 41-52 99-65c101-66 263-155 362-199l55-25-110 112-110 111-49 82-49 83-33 97c-41 120-54 199-54 324 0 138 30 278 81 380l18 36-67 18c-37 10-111 33-164 52-53 18-101 33-106 33-4 0-18-31-30-68z"/></g></g></svg>